HIERARCHY
ROOT hip
{
  OFFSET 0 0 0
  CHANNELS 6 Xposition Yposition Zposition Zrotation Yrotation Xrotation
  JOINT abdomen
  {
    OFFSET 0 20.6881 -0.73152
    CHANNELS 3 Zrotation Xrotation Yrotation
    JOINT chest
    {
      OFFSET 0 11.7043 -0.48768
      CHANNELS 3 Zrotation Xrotation Yrotation
      JOINT neck
      {
        OFFSET 0 22.1894 -2.19456
        CHANNELS 3 Zrotation Xrotation Yrotation
        JOINT head
        {
          OFFSET -0.24384 7.07133 1.2192
          CHANNELS 3 Zrotation Xrotation Yrotation
          JOINT leftEye
          {
            OFFSET 4.14528 8.04674 8.04672
            CHANNELS 3 Zrotation Xrotation Yrotation
            End Site
            {
              OFFSET 1 0 0
            }
          }
          JOINT rightEye
          {
            OFFSET -3.6576 8.04674 8.04672
            CHANNELS 3 Zrotation Xrotation Yrotation
            End Site
            {
              OFFSET 1 0 0
            }
          }
        }
      }
      JOINT rCollar
      {
        OFFSET -2.68224 19.2634 -4.8768
        CHANNELS 3 Zrotation Xrotation Yrotation
        JOINT rShldr
        {
          OFFSET -8.77824 -1.95073 1.46304
          CHANNELS 3 Zrotation Xrotation Yrotation
          JOINT rForeArm
          {
            OFFSET -28.1742 -1.7115 0.48768
            CHANNELS 3 Zrotation Xrotation Yrotation
            JOINT rHand
            {
              OFFSET -22.5879 0.773209 7.07136
              CHANNELS 3 Zrotation Xrotation Yrotation
              JOINT rThumb1
              {
                OFFSET -1.2192 -0.487915 3.41376
                CHANNELS 3 Zrotation Xrotation Yrotation
                JOINT rThumb2
                {
                  OFFSET -3.37035 -0.52449 3.41376
                  CHANNELS 3 Zrotation Xrotation Yrotation
                  End Site
                  {
                    OFFSET -1.78271 -1.18214 1.43049
                  }
                }
              }
              JOINT rIndex1
              {
                OFFSET -7.75947 0.938293 5.60832
                CHANNELS 3 Zrotation Xrotation Yrotation
                JOINT rIndex2
                {
                  OFFSET -2.54057 -0.884171 1.56538
                  CHANNELS 3 Zrotation Xrotation Yrotation
                  End Site
                  {
                    OFFSET -1.62519 -0.234802 1.16502
                  }
                }
              }
              JOINT rMid1
              {
                OFFSET -8.24714 1.18213 3.41376
                CHANNELS 3 Zrotation Xrotation Yrotation
                JOINT rMid2
                {
                  OFFSET -3.10165 -0.590103 1.0647
                  CHANNELS 3 Zrotation Xrotation Yrotation
                  End Site
                  {
                    OFFSET -2.48547 -0.328903 0.83742
                  }
                }
              }
              JOINT rRing1
              {
                OFFSET -8.82822 0.546677 1.51678
                CHANNELS 3 Zrotation Xrotation Yrotation
                JOINT rRing2
                {
                  OFFSET -2.60934 -0.819778 -0.0198488
                  CHANNELS 3 Zrotation Xrotation Yrotation
                  End Site
                  {
                    OFFSET -2.33842 -0.294052 0.168128
                  }
                }
              }
              JOINT rPinky1
              {
                OFFSET -8.27202 -0.0477905 -0.4584
                CHANNELS 3 Zrotation Xrotation Yrotation
                JOINT rPinky2
                {
                  OFFSET -1.82734 -0.647385 -0.700984
                  CHANNELS 3 Zrotation Xrotation Yrotation
                  End Site
                  {
                    OFFSET -1.69225 -0.51767 -0.607171
                  }
                }
              }
            }
          }
        }
      }
      JOINT lCollar
      {
        OFFSET 2.68224 19.2634 -4.8768
        CHANNELS 3 Zrotation Xrotation Yrotation
        JOINT lShldr
        {
          OFFSET 8.77824 -1.95073 1.46304
          CHANNELS 3 Zrotation Xrotation Yrotation
          JOINT lForeArm
          {
            OFFSET 28.1742 -1.7115 0.48768
            CHANNELS 3 Zrotation Xrotation Yrotation
            JOINT lHand
            {
              OFFSET 22.5879 0.773209 7.07136
              CHANNELS 3 Zrotation Xrotation Yrotation
              JOINT lThumb1
              {
                OFFSET 1.2192 -0.487915 3.41376
                CHANNELS 3 Zrotation Xrotation Yrotation
                JOINT lThumb2
                {
                  OFFSET 3.37035 -0.52449 3.41376
                  CHANNELS 3 Zrotation Xrotation Yrotation
                  End Site
                  {
                    OFFSET 1.78271 -1.18214 1.43049
                  }
                }
              }
              JOINT lIndex1
              {
                OFFSET 7.75947 0.938293 5.60832
                CHANNELS 3 Zrotation Xrotation Yrotation
                JOINT lIndex2
                {
                  OFFSET 2.54057 -0.884171 1.56538
                  CHANNELS 3 Zrotation Xrotation Yrotation
                  End Site
                  {
                    OFFSET 1.62519 -0.234802 1.16502
                  }
                }
              }
              JOINT lMid1
              {
                OFFSET 8.24714 1.18213 3.41376
                CHANNELS 3 Zrotation Xrotation Yrotation
                JOINT lMid2
                {
                  OFFSET 3.10165 -0.590103 1.0647
                  CHANNELS 3 Zrotation Xrotation Yrotation
                  End Site
                  {
                    OFFSET 2.48547 -0.328903 0.83742
                  }
                }
              }
              JOINT lRing1
              {
                OFFSET 8.82822 0.546677 1.51678
                CHANNELS 3 Zrotation Xrotation Yrotation
                JOINT lRing2
                {
                  OFFSET 2.60934 -0.819778 -0.0198488
                  CHANNELS 3 Zrotation Xrotation Yrotation
                  End Site
                  {
                    OFFSET 2.33842 -0.294052 0.168128
                  }
                }
              }
              JOINT lPinky1
              {
                OFFSET 8.27202 -0.0477905 -0.4584
                CHANNELS 3 Zrotation Xrotation Yrotation
                JOINT lPinky2
                {
                  OFFSET 1.82734 -0.647385 -0.700984
                  CHANNELS 3 Zrotation Xrotation Yrotation
                  End Site
                  {
                    OFFSET 1.69225 -0.51767 -0.607171
                  }
                }
              }
            }
          }
        }
      }
    }
  }
  JOINT rButtock
  {
    OFFSET -8.77824 4.35084 1.2192
    CHANNELS 3 Zrotation Xrotation Yrotation
    JOINT rThigh
    {
      OFFSET 0 -1.70687 -2.19456
      CHANNELS 3 Zrotation Xrotation Yrotation
      JOINT rShin
      {
        OFFSET 0 -36.8199 0.73152
        CHANNELS 3 Zrotation Xrotation Yrotation
        JOINT rFoot
        {
          OFFSET 0.73152 -45.1104 -5.12064
          CHANNELS 3 Zrotation Xrotation Yrotation
          End Site
          {
            OFFSET -1.1221 -3.69964 12.103
          }
        }
      }
    }
  }
  JOINT lButtock
  {
    OFFSET 8.77824 4.35084 1.2192
    CHANNELS 3 Zrotation Xrotation Yrotation
    JOINT lThigh
    {
      OFFSET 0 -1.70687 -2.19456
      CHANNELS 3 Zrotation Xrotation Yrotation
      JOINT lShin
      {
        OFFSET 0 -36.8199 0.73152
        CHANNELS 3 Zrotation Xrotation Yrotation
        JOINT lFoot
        {
          OFFSET -0.73152 -45.1104 -5.12064
          CHANNELS 3 Zrotation Xrotation Yrotation
          End Site
          {
            OFFSET 1.1221 -3.69964 12.103
          }
        }
      }
    }
  }
}
MOTION
Frames:	4
Frame Time:	0.00833333
3.58831 84.1002 -24.7893 0.0 0.0 0.0 -1.51927 -0.00282944 -0.0413936 -0.418701 0.00102615 -0.0725115 -4.88657e-14 1.59028e-15 9.93923e-17 -1.46663e-13 9.54166e-15 2.6867e-16 -0.0 0.0 0.0 -0.0 0.0 0.0 -2.41547e-14 -4.21253e-17 1.98785e-16 -5.11438e-13 -1.00014e-15 -1.98785e-16 -8.82206e-12 2.61402e-12 1.11319e-13 -1.01061e-10 -2.80592e-12 -5.08889e-14 -2.38376e-10 -4.13472e-13 1.62208e-13 -4.11678e-10 -7.12444e-13 2.93406e-13 -2.38374e-10 -4.14665e-13 1.62208e-13 7.73091 5.47488 0.417314 -2.38378e-10 -4.14267e-13 1.68569e-13 2.90554 0.965183 0.102902 -2.38377e-10 -4.13373e-13 1.63799e-13 10.2786 0.731801 0.0259123 -2.38381e-10 -4.10689e-13 1.7175e-13 2.22167 -0.733487 -0.20892 -2.44498e-14 -4.09605e-17 -9.93923e-17 -5.13402e-13 -9.06955e-16 -1.98785e-15 -8.83976e-12 -2.66729e-12 9.85972e-14 -1.01039e-10 2.48757e-12 -2.22639e-14 -2.38363e-10 -3.89501e-13 1.65389e-13 -4.11637e-10 -6.71097e-13 2.96587e-13 -2.38368e-10 -3.90811e-13 1.81292e-13 -7.73091 5.47488 -0.417314 -2.3836e-10 -3.90214e-13 1.62208e-13 -2.90554 0.965183 -0.102902 -2.38367e-10 -3.89519e-13 1.66184e-13 -10.2786 0.731801 -0.0259123 -2.38355e-10 -3.85642e-13 1.62208e-13 -2.22167 -0.733487 0.20892 -2.03217e-16 0.0 -3.88251e-19 -0.640546 -1.92323 -0.00643618 -0.0092546 -2.07856 -0.0764275 -0.512144 3.99733 0.14031 2.03217e-16 0.0 3.88251e-19 -1.66975 -6.49782 0.154697 -0.00231053 6.208 -0.0679826 0.534055 0.285489 -0.0665692
2.00226 82.2881 -27.2573 -4.8096 -4.9979 8.8528 -1.28499 -2.98331 0.4519 0.933984 0.773047 0.0296208 0.480937 -0.753113 -0.146715 -1.8037 1.96798 -0.339252 -0.0 0.0 0.0 -0.0 0.0 0.0 5.38525e-14 -1.67808e-14 3.92751e-14 21.638 6.86863 0.722953 -3.67219 -1.57272 5.83536 0.00706296 -1.86438 -0.261521 -1.28629e-09 1.19936e-09 -1.30475e-10 -2.22219e-09 2.07403e-09 -2.30063e-10 -1.28629e-09 1.19936e-09 -1.30475e-10 7.73091 5.47488 0.417314 -1.28629e-09 1.19936e-09 -1.30466e-10 2.90554 0.965183 0.102902 -1.28629e-09 1.19936e-09 -1.30472e-10 10.2786 0.731801 0.0259123 -1.28629e-09 1.19936e-09 -1.30465e-10 2.22167 -0.733487 -0.20892 5.35786e-14 -1.67798e-14 3.90177e-14 -22.4422 8.66304 -1.20896 3.38315 -1.40149 -5.42249 -0.00035657 -0.555338 0.0780388 -1.24049e-09 -1.14279e-09 -4.5646e-10 -2.14379e-09 -1.9747e-09 -7.88788e-10 -1.24049e-09 -1.14279e-09 -4.56447e-10 -7.73091 5.47488 -0.417314 -1.24048e-09 -1.14278e-09 -4.56461e-10 -2.90554 0.965183 -0.102902 -1.24049e-09 -1.14278e-09 -4.5646e-10 -10.2786 0.731801 -0.0259123 -1.24048e-09 -1.14278e-09 -4.56462e-10 -2.22167 -0.733487 0.20892 -2.03217e-16 0.0 -3.88251e-19 -0.943933 -6.61011 0.947154 0.0089716 6.02971 0.0729494 -0.678818 0.0112658 -2.13651 2.03217e-16 0.0 3.88251e-19 0.356119 -10.0794 0.503359 -0.0148677 13.1644 -0.189694 0.772154 -3.51293 2.6042
2.01877 82.2943 -27.2498 -4.6992 -5.1174 8.8251 -0.981956 -6.13331 0.976806 2.36171 1.58968 0.137342 0.996439 -1.53335 -0.302164 -3.7104 4.01261 -0.702981 -0.0 0.0 0.0 -0.0 0.0 0.0 1.39269e-13 -3.16815e-14 7.97779e-14 44.3175 14.1272 1.52341 -7.20855 -3.18137 12.0193 -0.00401633 -3.83611 -0.539039 -2.44344e-09 2.52695e-09 -3.01768e-10 -4.22136e-09 4.36969e-09 -5.31148e-10 -2.44344e-09 2.52695e-09 -3.01768e-10 7.73091 5.47488 0.417314 -2.44344e-09 2.52695e-09 -3.01757e-10 2.90554 0.965183 0.102902 -2.44344e-09 2.52695e-09 -3.01765e-10 10.2786 0.731801 0.0259123 -2.44344e-09 2.52696e-09 -3.01758e-10 2.22167 -0.733487 -0.20892 1.39014e-13 -3.16809e-14 7.95636e-14 -45.752 17.8087 -2.58213 6.68091 -2.84629 -11.1787 0.00111996 -1.18444 0.166472 -2.35997e-09 -2.39457e-09 -9.49744e-10 -4.07875e-09 -4.13772e-09 -1.64125e-09 -2.35997e-09 -2.39457e-09 -9.49734e-10 -7.73091 5.47488 -0.417314 -2.35997e-09 -2.39456e-09 -9.49742e-10 -2.90554 0.965183 -0.102902 -2.35998e-09 -2.39457e-09 -9.49743e-10 -10.2786 0.731801 -0.0259123 -2.35997e-09 -2.39456e-09 -9.49744e-10 -2.22167 -0.733487 0.20892 -2.03217e-16 0.0 -3.88251e-19 -1.0924 -11.5605 1.98435 -0.0188379 14.603 0.237708 -1.19976 -4.19381 -4.55366 2.03217e-16 0.0 3.88251e-19 2.54591 -13.8644 0.883007 0.00625762 20.5181 -0.329387 1.41147 -7.50248 5.46514
2.0201 82.2989 -27.249 -4.6789 -5.1563 8.8203 -0.660918 -8.94172 1.45433 3.63109 2.31707 0.234069 1.43123 -2.25928 -0.440449 -5.34086 5.90311 -1.02258 -0.0 0.0 0.0 -0.0 0.0 0.0 2.09867e-13 -5.0258e-14 1.17428e-13 64.3641 20.5923 2.30034 -10.0696 -4.52275 17.5559 -0.0300761 -5.59268 -0.787898 -3.38212e-09 3.59891e-09 -3.91748e-10 -5.84321e-09 6.22353e-09 -6.90777e-10 -3.38212e-09 3.59892e-09 -3.91749e-10 7.73091 5.47488 0.417314 -3.38212e-09 3.59891e-09 -3.91736e-10 2.90554 0.965183 0.102902 -3.38211e-09 3.59891e-09 -3.91745e-10 10.2786 0.731801 0.0259123 -3.38212e-09 3.59891e-09 -3.91739e-10 2.22167 -0.733487 -0.20892 2.09635e-13 -5.02576e-14 1.17252e-13 -66.1262 25.9401 -3.98783 9.36382 -4.05408 -16.3045 0.00347025 -1.666 0.234204 -3.24474e-09 -3.42758e-09 -1.36971e-09 -5.60809e-09 -5.92277e-09 -2.36696e-09 -3.24474e-09 -3.42757e-09 -1.3697e-09 -7.73091 5.47488 -0.417314 -3.24473e-09 -3.42757e-09 -1.36971e-09 -2.90554 0.965183 -0.102902 -3.24474e-09 -3.42757e-09 -1.36971e-09 -10.2786 0.731801 -0.0259123 -3.24474e-09 -3.42757e-09 -1.36971e-09 -2.22167 -0.733487 0.20892 -2.03217e-16 0.0 -3.88251e-19 -1.06631 -15.9665 2.94931 -0.0886329 22.2458 0.400178 -1.96627 -7.90632 -6.75396 2.03217e-16 0.0 3.88251e-19 4.5446 -17.24 1.23485 0.0592942 27.0765 -0.470529 2.3236 -11.0129 8.08082
